<svg width="28" height="32" viewBox="0 0 28 32" fill="none" xmlns="http://www.w3.org/2000/svg">
<g id="Frame" clip-path="url(#clip0_1050_1173)">
<path id="Vector" d="M14.9241 0.997881C15.5823 1.09723 16.2534 1.14425 16.8972 1.30124C22.5928 2.70729 26.1122 6.27552 27.4743 11.9559C27.5688 12.3895 27.6349 12.8288 27.6721 13.2709C27.7178 13.7017 27.7277 14.1355 27.7573 14.6413C27.6257 14.5449 27.4876 14.4575 27.3441 14.3797C26.9393 14.1992 26.5345 14.0157 26.1183 13.8685C25.9394 13.8056 25.8634 13.7404 25.8451 13.5455C25.6657 11.4854 24.9363 9.51073 23.7327 7.82643C22.3778 5.8941 20.4678 4.41566 18.254 3.58551C16.5467 2.9293 14.7075 2.68704 12.8878 2.87869C10.5855 3.09798 8.40189 3.99952 6.61843 5.46708C4.70379 7.00357 3.32463 9.1032 2.67753 11.4667C2.48425 12.1493 2.41805 12.872 2.28336 13.5743C2.26586 13.666 2.20727 13.7919 2.13117 13.8238C1.56199 14.0688 0.984436 14.294 0.357422 14.5465C0.433516 13.8215 0.457102 13.0563 0.601681 12.3138C1.52774 7.54659 4.22299 4.14596 8.64634 2.12106C10.0049 1.50922 11.4627 1.14549 12.9502 1.04718C13.0397 1.03519 13.1283 1.01797 13.2158 0.995605L14.9241 0.997881Z" fill="#60340B"/>
<path id="Vector_2" d="M16.64 28.3556C17.6825 28.3556 18.7166 28.3943 19.7461 28.345C20.8716 28.2912 21.8463 27.4759 22.0906 26.5249C21.634 26.5037 21.1501 26.5545 20.7049 26.449C19.4509 26.1457 18.6504 25.1264 18.6375 23.8311C18.6154 21.3686 18.6025 18.9061 18.6375 16.4443C18.6702 14.27 20.9203 13.0316 22.7884 14.1343C23.6574 14.647 24.082 15.4592 24.0896 16.4542C24.1033 19.5636 24.12 22.673 24.0835 25.7824C24.0553 28.1774 22.0731 30.1227 19.67 30.1811C18.7387 30.2038 17.8073 30.1917 16.8759 30.1811C16.6971 30.1811 16.6141 30.2387 16.5388 30.3987C15.9856 31.5879 14.7445 32.2075 13.4859 31.9352C12.2722 31.6728 11.3857 30.5952 11.3416 29.3294C11.299 28.0879 12.1839 26.9503 13.4425 26.6295C14.6319 26.3262 15.9536 26.9443 16.5 28.0576C16.5487 28.1585 16.5936 28.257 16.64 28.3556Z" fill="#60340B"/>
<path id="Vector_3" d="M9.51616 20.1634C9.51616 21.3541 9.52225 22.5447 9.51616 23.7346C9.50855 24.9723 8.78109 26.028 7.71121 26.3776C5.87354 26.9768 4.09066 25.7664 4.0587 23.8393C4.02015 21.3685 4.02015 18.8969 4.0587 16.4245C4.09675 14.2646 6.33315 13.0375 8.19669 14.1273C9.10069 14.6582 9.50551 15.5 9.51312 16.5314C9.52301 17.7426 9.51616 18.953 9.51616 20.1634Z" fill="#60340B"/>
<path id="Vector_4" d="M2.2583 15.7207V24.5605C1.53693 24.3178 0.990576 23.8613 0.692288 23.1711C0.526321 22.7834 0.433709 22.3684 0.419113 21.9471C0.38411 20.7382 0.400088 19.5271 0.408459 18.3174C0.413785 17.0858 1.17016 16.0241 2.2583 15.7207Z" fill="#60340B"/>
<path id="Vector_5" d="M25.8923 24.5454V15.7056C26.4479 15.8833 26.9275 16.2417 27.2544 16.7233C27.578 17.1799 27.7487 17.7267 27.7422 18.2856C27.7422 19.5157 27.7521 20.7458 27.7422 21.9759C27.7292 23.1916 26.9721 24.2329 25.8923 24.5454Z" fill="#60340B"/>
</g>
<defs>
<clipPath id="clip0_1050_1173">
<rect width="27.3953" height="31" fill="white" transform="translate(0.364258 0.998047)"/>
</clipPath>
</defs>
</svg>
