<svg width="32" height="32" viewBox="0 0 32 32" fill="none" xmlns="http://www.w3.org/2000/svg">
<g id="Frame" clip-path="url(#clip0_1050_1163)">
<path id="Vector" d="M27.2223 23.3808C28.4013 23.3489 29.4057 23.7092 30.2463 24.4969C31.0097 25.2113 31.427 26.1059 31.5551 27.147C31.5975 27.4917 31.4466 27.6994 31.1454 27.8106C31.3999 29.9729 30.4965 31.4837 28.7237 31.9146C27.3164 32.2594 25.3137 31.5837 24.7641 29.2964C24.7463 29.2964 24.72 29.2904 24.7115 29.2964C24.2136 29.8557 23.8547 29.7919 23.5867 29.0921C23.5214 28.9198 23.4713 28.7474 23.4306 28.6233C23.1125 28.6578 22.8089 28.719 22.5043 28.7198C19.8787 28.7273 17.2531 28.7273 14.6275 28.7198C14.3731 28.7198 14.2509 28.7448 14.2034 29.0646C13.9659 30.6434 12.5705 31.8035 10.9801 31.7888C10.2111 31.7853 9.4686 31.5036 8.88555 30.9943C8.30249 30.4849 7.91704 29.7813 7.7983 29.0094C7.78558 28.9232 7.76607 28.8422 7.7525 28.7715C7.49802 28.7216 7.25203 28.7009 7.0247 28.6242C6.06703 28.3027 5.52924 27.3659 5.61152 26.2179C5.67018 25.4341 5.86338 24.6667 6.18239 23.9505C6.49709 23.236 6.86099 22.5448 7.22149 21.851C7.25019 21.7997 7.28971 21.7555 7.33723 21.7215C7.38474 21.6875 7.43908 21.6647 7.49633 21.6546C9.99441 21.6451 12.4933 21.6477 14.9914 21.6494C15.0121 21.6527 15.0322 21.6594 15.0508 21.6692C14.8871 23.2145 15.1178 24.0823 15.8465 24.5736C15.8753 24.1332 15.905 23.7117 15.9313 23.286C16.0331 21.548 16.1349 19.8094 16.2367 18.0702C16.2672 17.5531 16.1179 17.3721 15.6056 17.3161C14.8379 17.2299 14.0702 17.1489 13.3034 17.0576C13.0919 17.0365 12.8871 16.9701 12.7026 16.8629C12.5181 16.7556 12.358 16.6099 12.2329 16.4352C12.1078 16.2606 12.0206 16.061 11.9769 15.8497C11.9331 15.6383 11.934 15.4199 11.9793 15.2089C12.4515 12.8739 12.9302 10.5401 13.4154 8.20743C13.63 7.17324 14.4884 6.55875 15.4876 6.68027C16.3885 6.78886 17.062 7.61018 17.084 8.5987C17.0944 8.75227 17.154 8.89817 17.2537 9.0141C18.1384 10.0138 19.3022 10.543 20.5127 10.9963C21.0862 11.2183 21.6975 11.3223 22.3109 11.3023C23.1354 11.2721 23.9616 11.2919 24.7878 11.2962C25.8218 11.3023 26.4275 11.915 26.4334 12.9578C26.4334 13.2802 26.4411 13.6033 26.4283 13.9257C26.4165 14.3118 26.2598 14.6787 25.9902 14.9511C25.7207 15.2235 25.3588 15.3808 24.9787 15.3908C24.6394 15.402 24.306 15.3908 23.9252 15.3908C24.1678 17.2135 24.5537 18.8976 26.0899 20.0584C27.0755 20.8039 27.4589 21.8252 27.2672 23.0636C27.2503 23.1576 27.2393 23.2524 27.2223 23.3808ZM20.8443 13.8283C19.2056 13.6394 17.6508 12.9913 16.3537 11.9564C16.229 12.5019 16.1086 12.9992 16.0017 13.4991C15.9169 13.9127 16.0119 14.0894 16.4055 14.2411C17.127 14.518 17.8492 14.793 18.5719 15.0659C19.4854 15.4106 19.8375 15.9329 19.7408 16.911C19.5312 19.0389 19.2988 21.1642 19.0774 23.2886C19.0147 23.8919 18.9553 24.4951 18.8942 25.1131H20.8452L20.8443 13.8283ZM27.9696 30.939C29.5991 30.9459 30.6984 29.2421 30.0351 27.7442C30.0019 27.6483 29.9417 27.5645 29.8619 27.5032C29.782 27.4418 29.6862 27.4058 29.5863 27.3995C28.3301 27.2702 27.1459 27.4857 26.0458 28.1346C25.9466 28.1852 25.8642 28.2643 25.8089 28.3621C25.7535 28.4598 25.7276 28.5719 25.7345 28.6845C25.7442 29.282 25.9832 29.8521 26.4005 30.2732C26.8179 30.6944 27.3806 30.9333 27.9687 30.939H27.9696ZM8.82383 28.744C8.8128 29.848 9.91128 30.8124 11.1082 30.7606C12.2245 30.7141 13.2661 29.7092 13.1821 28.744H8.82383Z" fill="#60340B"/>
<path id="Vector_2" d="M5.64979 8.22434C6.79266 8.22434 7.93553 8.22434 9.0784 8.22434C10.0963 8.22434 10.7265 8.86468 10.7274 9.89112C10.7274 11.7079 10.7274 13.5246 10.7274 15.3413C10.7274 16.3514 10.0929 16.9978 9.103 16.9986C6.79577 16.9986 4.48854 16.9986 2.18131 16.9986C1.21007 16.9986 0.569646 16.3479 0.564556 15.3663C0.561163 13.5278 0.561163 11.6892 0.564556 9.85061C0.564556 8.88536 1.21007 8.22951 2.15757 8.2252C3.32136 8.22003 4.48515 8.22434 5.64979 8.22434Z" fill="#60340B"/>
<path id="Vector_3" d="M15.2809 20.6132H13.8083C11.6394 20.6132 9.46956 20.6132 7.3006 20.6184C7.20753 20.6262 7.11406 20.6093 7.02932 20.5694C6.94459 20.5295 6.87147 20.468 6.8171 20.3909C6.41979 19.8823 6.18956 19.2598 6.15886 18.6112C6.13765 18.1682 6.32257 17.9648 6.75263 17.9648C9.39803 17.9648 12.0437 17.9648 14.6897 17.9648C15.0519 17.9648 15.2665 18.126 15.2758 18.4552C15.2945 19.1585 15.2809 19.866 15.2809 20.6132Z" fill="#60340B"/>
<path id="Vector_4" d="M14.2866 3.56523C14.2918 2.88011 14.5644 2.22508 15.0445 1.74402C15.5247 1.26296 16.1732 0.995205 16.8475 0.999564C17.1817 1.00238 17.512 1.07205 17.8197 1.20459C18.1274 1.33714 18.4064 1.52996 18.6407 1.77205C18.875 2.01413 19.0601 2.30075 19.1855 2.61552C19.3108 2.93029 19.3738 3.26706 19.371 3.6066C19.3623 4.28647 19.0904 4.9355 18.6141 5.41312C18.1378 5.89075 17.4955 6.15853 16.8263 6.15847C16.4919 6.1578 16.1609 6.09016 15.8522 5.95944C15.5436 5.82872 15.2633 5.63747 15.0275 5.39663C14.7916 5.15579 14.6048 4.87009 14.4777 4.55584C14.3505 4.2416 14.2856 3.90498 14.2866 3.56523Z" fill="#60340B"/>
</g>
<defs>
<clipPath id="clip0_1050_1163">
<rect width="31" height="31" fill="white" transform="translate(0.562012 0.998047)"/>
</clipPath>
</defs>
</svg>
