<svg width="32" height="32" viewBox="0 0 32 32" fill="none" xmlns="http://www.w3.org/2000/svg">
<g id="Frame" clip-path="url(#clip0_1050_250)">
<path id="Vector" d="M27.16 22.705C28.3391 22.6731 29.3434 23.0334 30.184 23.8211C30.9475 24.5355 31.3648 25.4301 31.4929 26.4712C31.5353 26.8159 31.3843 27.0236 31.0832 27.1348C31.3376 29.2971 30.4343 30.8079 28.6614 31.2388C27.2542 31.5836 25.2515 30.9079 24.7018 28.6206C24.684 28.6206 24.6577 28.6146 24.6492 28.6206C24.1513 29.1799 23.7925 29.1162 23.5244 28.4164C23.4591 28.244 23.4091 28.0716 23.3684 27.9475C23.0503 27.982 22.7466 28.0432 22.4421 28.044C19.8165 28.0515 17.1909 28.0515 14.5653 28.044C14.3108 28.044 14.1887 28.069 14.1412 28.3888C13.9036 29.9677 12.5083 31.1277 10.9178 31.113C10.1489 31.1095 9.40635 30.8278 8.82329 30.3185C8.24023 29.8092 7.85478 29.1055 7.73604 28.3336C7.72332 28.2474 7.70381 28.1664 7.69024 28.0958C7.43577 28.0458 7.18977 28.0251 6.96244 27.9484C6.00477 27.6269 5.46698 26.6901 5.54926 25.5422C5.60792 24.7583 5.80113 23.9909 6.12014 23.2747C6.43484 22.5602 6.79873 21.869 7.15924 21.1753C7.18793 21.1239 7.22745 21.0797 7.27497 21.0457C7.32249 21.0117 7.37682 20.9889 7.43407 20.9788C9.93215 20.9693 12.4311 20.9719 14.9292 20.9736C14.9499 20.9769 14.9699 20.9836 14.9885 20.9934C14.8248 22.5387 15.0556 23.4065 15.7842 23.8978C15.813 23.4574 15.8427 23.036 15.869 22.6102C15.9708 20.8722 16.0726 19.1336 16.1744 17.3944C16.2049 16.8773 16.0556 16.6963 15.5433 16.6403C14.7756 16.5541 14.008 16.4731 13.2412 16.3818C13.0296 16.3607 12.8248 16.2944 12.6403 16.1871C12.4558 16.0798 12.2958 15.9341 12.1707 15.7595C12.0456 15.5848 11.9583 15.3853 11.9146 15.1739C11.8709 14.9625 11.8717 14.7442 11.917 14.5331C12.3892 12.1982 12.8679 9.86433 13.3531 7.53165C13.5677 6.49745 14.4262 5.88297 15.4254 6.00449C16.3262 6.11308 16.9997 6.9344 17.0218 7.92292C17.0322 8.07649 17.0918 8.22239 17.1914 8.33832C18.0762 9.33804 19.24 9.86721 20.4504 10.3205C21.024 10.5425 21.6352 10.6465 22.2487 10.6265C23.0732 10.5963 23.8994 10.6161 24.7256 10.6204C25.7596 10.6265 26.3652 11.2392 26.3712 12.2821C26.3712 12.6044 26.3788 12.9276 26.3661 13.2499C26.3543 13.636 26.1975 14.0029 25.928 14.2753C25.6584 14.5477 25.2965 14.7051 24.9164 14.715C24.5771 14.7262 24.2438 14.715 23.8629 14.715C24.1055 16.5378 24.4914 18.2218 26.0276 19.3827C27.0133 20.1281 27.3967 21.1494 27.205 22.3879C27.188 22.4818 27.177 22.5766 27.16 22.705ZM20.7821 13.1525C19.1433 12.9636 17.5886 12.3155 16.2915 11.2806C16.1668 11.8261 16.0463 12.3234 15.9394 12.8233C15.8546 13.237 15.9496 13.4136 16.3432 13.5653C17.0648 13.8423 17.7869 14.1172 18.5096 14.3901C19.4232 14.7348 19.7752 15.2571 19.6785 16.2353C19.469 18.3631 19.2366 20.4884 19.0152 22.6128C18.9524 23.2161 18.893 23.8194 18.832 24.4373H20.7829L20.7821 13.1525ZM27.9073 30.2633C29.5368 30.2702 30.6361 28.5663 29.9728 27.0685C29.9397 26.9725 29.8794 26.8887 29.7996 26.8274C29.7198 26.7661 29.624 26.73 29.5241 26.7237C28.2678 26.5944 27.0837 26.8099 25.9835 27.4589C25.8843 27.5095 25.8019 27.5885 25.7466 27.6863C25.6913 27.784 25.6654 27.8962 25.6722 28.0087C25.6819 28.6063 25.9209 29.1763 26.3382 29.5975C26.7556 30.0186 27.3183 30.2575 27.9065 30.2633H27.9073ZM8.76157 28.0682C8.75054 29.1722 9.84903 30.1366 11.0459 30.0849C12.1622 30.0383 13.2038 29.0334 13.1199 28.0682H8.76157Z" fill="#60340B"/>
<path id="Vector_2" d="M5.58778 7.54856C6.73065 7.54856 7.87352 7.54856 9.01639 7.54856C10.0343 7.54856 10.6645 8.1889 10.6654 9.21534C10.6654 11.0321 10.6654 12.8488 10.6654 14.6655C10.6654 15.6756 10.0309 16.322 9.04099 16.3228C6.73376 16.3228 4.42653 16.3228 2.1193 16.3228C1.14806 16.3228 0.507634 15.6722 0.502545 14.6905C0.499152 12.852 0.499152 11.0134 0.502545 9.17483C0.502545 8.20958 1.14806 7.55373 2.09555 7.54942C3.25935 7.54425 4.42314 7.54856 5.58778 7.54856Z" fill="#60340B"/>
<path id="Vector_3" d="M15.2184 19.9375H13.7458C11.5769 19.9375 9.40706 19.9375 7.2381 19.9426C7.14503 19.9504 7.05156 19.9335 6.96682 19.8936C6.88209 19.8538 6.80897 19.7923 6.7546 19.7151C6.35729 19.2065 6.12706 18.584 6.09636 17.9354C6.07515 17.4925 6.26007 17.2891 6.69013 17.2891C9.33553 17.2891 11.9812 17.2891 14.6272 17.2891C14.9894 17.2891 15.204 17.4502 15.2133 17.7794C15.232 18.4827 15.2184 19.1903 15.2184 19.9375Z" fill="#60340B"/>
<path id="Vector_4" d="M14.2246 2.88994C14.2298 2.20482 14.5024 1.54979 14.9825 1.06873C15.4627 0.587669 16.1111 0.319912 16.7855 0.324271C17.1197 0.327089 17.45 0.396759 17.7577 0.529301C18.0654 0.661844 18.3444 0.854664 18.5787 1.09675C18.813 1.33884 18.9981 1.62545 19.1234 1.94023C19.2487 2.255 19.3118 2.59177 19.309 2.9313C19.3003 3.61118 19.0284 4.2602 18.5521 4.73783C18.0758 5.21546 17.4335 5.48324 16.7643 5.48318C16.4299 5.4825 16.0989 5.41487 15.7902 5.28415C15.4816 5.15343 15.2013 4.96218 14.9655 4.72134C14.7296 4.4805 14.5428 4.19479 14.4156 3.88055C14.2885 3.5663 14.2236 3.22969 14.2246 2.88994Z" fill="#60340B"/>
</g>
<defs>
<clipPath id="clip0_1050_250">
<rect width="31" height="31" fill="white" transform="translate(0.5 0.322266)"/>
</clipPath>
</defs>
</svg>
