<svg width="28" height="15" viewBox="0 0 28 15" fill="none" xmlns="http://www.w3.org/2000/svg">
<g id="ifood-43 3" clip-path="url(#clip0_1050_278)">
<path id="Vector" d="M0.5 8.87893H2.55485L3.6967 3.19925H1.64158L0.5 8.87893ZM1.7548 2.52183H3.81826L4.15737 0.8225H2.09472L1.7548 2.52183ZM3.35409 10.4772H5.40921L6.66482 4.34084H8.20603L8.43327 3.19925H6.92164L6.97892 2.94243C7.06444 2.45837 7.23575 1.91487 8.00622 1.91487C8.46339 1.91487 8.89124 1.94338 9.3191 2.14319L9.54769 0.944592C9.07086 0.776345 8.56914 0.689438 8.0635 0.6875C6.408 0.6875 5.26668 1.65805 4.83829 3.19925H4.12483L3.89651 4.34084H4.60997L3.35409 10.4772Z" fill="#60340B"/>
<path id="Vector_2" d="M9.86171 8.99309C12.2877 8.99309 13.9717 6.79518 13.9717 4.99715C13.9717 3.65575 12.7443 3.08483 11.5457 3.08483C8.89062 3.08483 7.43574 5.45513 7.43574 7.08077C7.43574 8.42217 8.69162 8.99309 9.86171 8.99309ZM16.3697 8.99309C18.7956 8.99309 20.4796 6.79518 20.4796 4.99715C20.4796 3.65575 19.2238 3.08483 18.0249 3.08483C15.3706 3.08483 13.9152 5.45378 13.9152 7.08077C13.9152 8.42217 15.1996 8.99309 16.3697 8.99309ZM23.8189 8.8788H25.8452L27.5002 0.802734H25.4453L24.9599 3.20019L24.1037 3.11468C22.1058 3.11468 20.2793 5.68317 20.2793 7.50998C20.2793 8.25194 20.7634 8.99417 21.5922 8.99417C22.7623 8.99417 23.59 8.42324 23.9318 7.85232H24.0459L23.8189 8.8788ZM17.4822 13.1316C15.8872 14.4531 13.8385 15.0984 11.774 14.9296C9.06246 14.7583 7.12164 12.6747 6.7793 10.477H6.89332C7.52126 11.8485 9.03396 13.1316 10.8893 13.3311C12.7717 13.5594 15.0277 12.7034 16.2548 11.5331L14.8849 10.477H19.0234L18.1091 14.8726L17.5096 13.1601L17.4822 13.1316Z" fill="#60340B"/>
</g>
<defs>
<clipPath id="clip0_1050_278">
<rect width="27" height="14.2686" fill="white" transform="translate(0.5 0.6875)"/>
</clipPath>
</defs>
</svg>
