<svg width="28" height="28" viewBox="0 0 28 28" fill="none" xmlns="http://www.w3.org/2000/svg">
<g id="instagram-brands">
<path id="Vector" d="M14.0001 9.15065C11.4456 9.15065 9.38514 11.2111 9.38514 13.7656C9.38514 16.3201 11.4456 18.3806 14.0001 18.3806C16.5546 18.3806 18.6151 16.3201 18.6151 13.7656C18.6151 11.2111 16.5546 9.15065 14.0001 9.15065ZM14.0001 16.766C12.3493 16.766 10.9998 15.4204 10.9998 13.7656C10.9998 12.1108 12.3453 10.7653 14.0001 10.7653C15.6549 10.7653 17.0004 12.1108 17.0004 13.7656C17.0004 15.4204 15.6509 16.766 14.0001 16.766ZM19.8803 8.96188C19.8803 9.56034 19.3983 10.0383 18.8039 10.0383C18.2054 10.0383 17.7274 9.55632 17.7274 8.96188C17.7274 8.36743 18.2094 7.88545 18.8039 7.88545C19.3983 7.88545 19.8803 8.36743 19.8803 8.96188ZM22.9369 10.0544C22.8686 8.61244 22.5392 7.33519 21.4829 6.28286C20.4305 5.23054 19.1533 4.90118 17.7114 4.82889C16.2253 4.74454 11.7709 4.74454 10.2848 4.82889C8.84693 4.89717 7.56967 5.22652 6.51333 6.27885C5.45699 7.33117 5.13165 8.60842 5.05935 10.0504C4.97501 11.5365 4.97501 15.9908 5.05935 17.4769C5.12763 18.9188 5.45699 20.1961 6.51333 21.2484C7.56967 22.3007 8.84291 22.6301 10.2848 22.7024C11.7709 22.7867 16.2253 22.7867 17.7114 22.7024C19.1533 22.6341 20.4305 22.3047 21.4829 21.2484C22.5352 20.1961 22.8646 18.9188 22.9369 17.4769C23.0212 15.9908 23.0212 11.5405 22.9369 10.0544ZM21.017 19.0714C20.7037 19.8587 20.0972 20.4652 19.3059 20.7825C18.1211 21.2524 15.3095 21.144 14.0001 21.144C12.6907 21.144 9.87515 21.2484 8.6943 20.7825C7.90706 20.4692 7.30057 19.8627 6.98326 19.0714C6.51333 17.8866 6.62178 15.075 6.62178 13.7656C6.62178 12.4562 6.51735 9.64067 6.98326 8.45981C7.29655 7.67258 7.90304 7.06608 8.6943 6.74878C9.87917 6.27885 12.6907 6.38729 14.0001 6.38729C15.3095 6.38729 18.1251 6.28286 19.3059 6.74878C20.0932 7.06207 20.6997 7.66856 21.017 8.45981C21.4869 9.64468 21.3784 12.4562 21.3784 13.7656C21.3784 15.075 21.4869 17.8906 21.017 19.0714Z" fill="#F59A1B"/>
</g>
</svg>
