<svg width="37" height="56" viewBox="0 0 37 56" fill="none" xmlns="http://www.w3.org/2000/svg">
<g id="Frame" clip-path="url(#clip0_1050_240)">
<path id="Vector" d="M31.9202 0.0195312C32.621 0.282092 33.3781 0.449959 34.0124 0.82443C35.69 1.81441 36.593 3.32234 36.7014 5.27361C36.7101 5.43431 36.7159 5.595 36.7159 5.75713C36.7159 20.2582 36.7144 34.7579 36.7188 49.259C36.7188 51.4685 35.8114 53.1601 33.8968 54.2964C32.975 54.8431 31.9578 55.021 30.8914 55.021C22.7768 55.0138 14.6622 55.0195 6.54897 55.0124C6.10105 55.0124 5.64735 54.9808 5.20521 54.9047C2.80087 54.4958 0.871912 52.3236 0.746205 49.9017C0.733201 49.6521 0.725976 49.401 0.725976 49.1499C0.723086 34.722 0.728866 20.2927 0.718751 5.8633C0.717307 3.40269 1.76053 1.5992 3.99581 0.517392C4.47264 0.286396 5.01014 0.181659 5.5202 0.0195312C14.3197 0.0195312 23.1192 0.0195312 31.9202 0.0195312ZM31.1284 38.4782V5.53904H6.29611V38.4796H31.1269L31.1284 38.4782ZM18.7238 49.5574V49.5187C19.2295 49.5187 19.7353 49.5402 20.2395 49.5144C21.8549 49.4326 22.8722 48.3579 22.862 46.7668C22.8534 45.2589 21.7162 44.0809 20.1803 44.035C19.1905 44.0049 18.1964 44.0006 17.2067 44.0408C15.9207 44.0938 14.6867 45.3077 14.5885 46.5573C14.4787 47.9533 15.3861 49.1844 16.7876 49.4355C17.4191 49.5488 18.0779 49.5201 18.7238 49.5574Z" fill="#FAE2CB"/>
</g>
<defs>
<clipPath id="clip0_1050_240">
<rect width="36" height="55" fill="white" transform="translate(0.71875 0.0195312)"/>
</clipPath>
</defs>
</svg>
