<svg width="30" height="34" viewBox="0 0 30 34" fill="none" xmlns="http://www.w3.org/2000/svg">
<g id="Frame" clip-path="url(#clip0_1050_262)">
<path id="Vector" d="M15.5987 0.322266C15.8892 0.384785 16.1844 0.433125 16.4702 0.511758C18.5565 1.08539 19.9059 2.4099 20.6768 4.37443C18.1634 4.84816 16.2963 6.16043 14.9983 8.29898C13.7036 6.16107 11.8372 4.84687 9.33105 4.37443C9.88812 2.85012 10.853 1.68094 12.3296 0.977754C12.9746 0.670957 13.7069 0.535605 14.3992 0.322266C14.799 0.322266 15.1989 0.322266 15.5987 0.322266Z" fill="#60340B"/>
<path id="Vector_2" d="M8.73423 33.3221C8.58164 33.2209 8.40906 33.1384 8.28046 33.014C7.9073 32.6524 7.89664 32.0962 8.26913 31.7062C8.66027 31.297 9.0694 30.9019 9.49453 30.5261C9.57316 30.4565 9.78039 30.4668 9.90233 30.5093C11.1924 30.9573 12.5177 31.2344 13.885 31.3408C16.008 31.5058 18.0643 31.2158 20.0587 30.5126C20.3239 30.4191 20.4778 30.4578 20.6557 30.6492C20.9149 30.9283 21.2008 31.1835 21.4753 31.4491C22.2463 32.1935 22.1783 32.7936 21.2621 33.3227H8.73423V33.3221Z" fill="#60340B"/>
<path id="Vector_3" d="M27.2607 0.322266C27.324 0.360293 27.3853 0.400898 27.4506 0.435703C28.0283 0.743145 28.1969 1.44182 27.7458 1.90975C26.8395 2.85076 25.8973 3.75955 24.9631 4.67479C24.9112 4.7257 24.7865 4.74375 24.7059 4.72764C24.1222 4.61033 23.5405 4.48271 22.9601 4.35123C22.8735 4.33125 22.7955 4.27453 22.7129 4.23457C22.7569 4.15465 22.7842 4.0599 22.8468 3.99803C23.9769 2.87848 25.1091 1.76021 26.2492 0.649043C26.3844 0.516914 26.567 0.429902 26.7276 0.322266H27.2607V0.322266Z" fill="#60340B"/>
<path id="Vector_4" d="M2.40039 19.7334H18.1634C18.7397 20.9806 19.7106 21.7108 21.1646 21.6419C22.4553 21.5806 23.3142 20.8723 23.8186 19.7347H27.5807C26.7758 23.8126 22.5605 29.1339 15.5773 29.4368C8.55205 29.7417 3.49985 24.7169 2.40039 19.7334Z" fill="#60340B"/>
<path id="Vector_5" d="M27.9634 11.9884C27.2697 11.9884 26.5734 11.982 25.8778 11.991C25.402 11.9968 24.9176 11.9762 24.4518 12.0523C23.0318 12.283 22.0143 13.4573 21.9997 14.856C21.9857 16.1444 22.003 17.4328 21.993 18.7206C21.987 19.4811 21.2294 19.9465 20.5544 19.6152C20.1712 19.427 19.9966 19.1105 19.9966 18.6987C19.9966 17.4857 19.998 16.2726 19.9966 15.059C19.9946 13.2169 18.7273 11.9917 16.8242 11.9891C16.5603 11.9891 16.2964 11.9891 15.9893 11.9891C16.0692 9.92272 16.9188 8.27659 18.6873 7.16671C20.7729 5.85831 22.9532 5.82931 25.1028 7.03587C27.1158 8.16573 28.052 10.3191 27.9627 11.9891L27.9634 11.9884Z" fill="#60340B"/>
<path id="Vector_6" d="M17.998 17.7887H17.5782C12.1361 17.7887 6.69348 17.7887 1.25147 17.7887C0.359908 17.7887 0.00341588 17.4438 0.0054149 16.5782C0.00608125 16.2457 -0.017907 15.9079 0.0300695 15.5811C0.175332 14.5892 1.00693 13.9241 2.07973 13.9228C5.26751 13.9195 8.45462 13.9215 11.6424 13.9215C13.3749 13.9215 15.1074 13.9215 16.8405 13.9215C17.6021 13.9215 17.996 14.2972 17.9973 15.0243C17.9993 15.9343 17.9973 16.8451 17.9973 17.788L17.998 17.7887Z" fill="#60340B"/>
<path id="Vector_7" d="M14.0164 11.9754H2.00098C2.05362 10.0863 2.79592 8.52526 4.35383 7.39926C6.34485 5.96003 8.52645 5.75506 10.7414 6.84497C12.861 7.88782 13.8852 9.65834 14.0164 11.9754Z" fill="#60340B"/>
<path id="Vector_8" d="M23.9982 17.7866C23.9982 16.7689 23.9835 15.7925 24.0042 14.8173C24.0149 14.3223 24.4473 13.933 24.9677 13.9272C26.0112 13.9149 27.056 13.9059 28.0995 13.9311C29.1024 13.9549 29.9293 14.7561 29.9853 15.7248C30.0073 16.0999 30.0026 16.477 29.9886 16.8521C29.9693 17.3561 29.5768 17.7763 29.0637 17.7808C27.3886 17.797 25.7134 17.7873 23.9982 17.7873V17.7866Z" fill="#60340B"/>
</g>
<defs>
<clipPath id="clip0_1050_262">
<rect width="30" height="33" fill="white" transform="translate(0 0.322266)"/>
</clipPath>
</defs>
</svg>
