<svg width="30" height="31" viewBox="0 0 30 31" fill="none" xmlns="http://www.w3.org/2000/svg">
<g id="Frame" clip-path="url(#clip0_1050_287)">
<path id="Vector" d="M14.3572 0.822266H16.1737C16.5394 0.86755 16.9076 0.904266 17.2722 0.958117C21.2049 1.54191 24.4404 3.36673 26.8966 6.49622C29.2942 9.55228 30.2911 13.0514 29.9266 16.9164C29.6783 19.549 28.7596 21.9515 27.1658 24.0639C24.3609 27.7833 20.6104 29.7966 15.9633 30.0647C13.3602 30.2152 10.882 29.6608 8.55291 28.4736C8.37431 28.3831 8.22018 28.3671 8.02691 28.4296C5.58532 29.2129 3.14128 29.9839 0.700917 30.7696C0.415902 30.8614 0.190826 30.8467 0 30.6069V30.3131C0.0379205 30.225 0.0831804 30.1393 0.113761 30.0488C0.89052 27.7601 1.66361 25.4702 2.44771 23.184C2.52722 22.9527 2.51743 22.7691 2.39388 22.5537C1.47034 20.943 0.901529 19.2075 0.66055 17.3717C0.326606 14.8138 0.601835 12.3146 1.6318 9.94392C3.75658 5.05815 7.46177 2.10245 12.6838 1.05848C13.2355 0.948326 13.7994 0.899371 14.3572 0.822266ZM4.61774 26.3024C4.75107 26.2657 4.83303 26.2461 4.91376 26.2204C6.02936 25.8667 7.14618 25.5191 8.25688 25.1544C8.54801 25.059 8.78654 25.0737 9.05443 25.2438C10.5089 26.1678 12.0966 26.7284 13.8067 26.9438C15.9193 27.2106 17.956 26.9168 19.9046 26.076C21.8838 25.223 23.5107 23.9122 24.7694 22.1571C25.9792 20.4706 26.696 18.5907 26.8869 16.526C27.1266 13.9203 26.5407 11.4983 25.1315 9.29403C23.5242 6.78016 21.2648 5.12057 18.3976 4.30423C16.219 3.68372 14.0367 3.71921 11.8752 4.37767C9.76392 5.02021 7.96697 6.17067 6.50398 7.83026C4.84526 9.71261 3.87523 11.9083 3.65138 14.4026C3.40306 17.1759 4.07584 19.7302 5.67584 22.0213C5.86911 22.2979 5.90336 22.5512 5.79205 22.867C5.39694 23.9881 5.02141 25.1165 4.61896 26.3012L4.61774 26.3024Z" fill="#60340B"/>
<path id="Vector_2" d="M19.2885 22.4854C18.4445 22.483 17.631 22.2455 16.8176 21.9995C13.5601 21.0155 11.2555 18.8333 9.36561 16.1138C8.70261 15.1592 8.12646 14.1666 7.94909 13.0003C7.77417 11.8449 7.95888 10.7495 8.60842 9.75082C9.03778 9.0887 9.68365 8.81822 10.4176 8.69093C10.6378 8.65299 10.8616 8.62729 11.0843 8.60036C11.5418 8.54407 11.9161 8.71296 12.102 9.12541C12.5619 10.1474 12.9962 11.1803 13.417 12.2194C13.5968 12.6625 13.3497 13.0419 13.1112 13.387C12.9008 13.6905 12.6341 13.9549 12.4115 14.2498C12.3589 14.3196 12.3332 14.4812 12.376 14.5424C13.5589 16.2203 14.9827 17.6204 16.8995 18.4527C17.1075 18.5433 17.2286 18.5151 17.3656 18.3352C17.6604 17.9472 17.9797 17.5764 18.2843 17.1957C18.6965 16.6805 19.0268 16.5924 19.6384 16.8641C20.1729 17.1015 20.7026 17.3487 21.231 17.6009C21.6445 17.7979 22.0506 18.0109 22.4616 18.2116C22.7846 18.3695 22.924 18.6228 22.9399 18.9826C23.0439 21.1991 21.2335 22.3153 19.6824 22.4621C19.5564 22.4744 19.4292 22.4781 19.2873 22.4866L19.2885 22.4854Z" fill="#60340B"/>
</g>
<defs>
<clipPath id="clip0_1050_287">
<rect width="30" height="30" fill="white" transform="translate(0 0.822266)"/>
</clipPath>
</defs>
</svg>
